<?xml version="1.0" encoding="UTF-8" standalone="no"?>
<svg
   width="60"
   height="60"
   viewBox="0 0 15 15"
   version="1.1"
   id="svg6308"
   sodipodi:docname="Wreath3.svg"
   inkscape:version="1.2.2 (b0a84865, 2022-12-01)"
   xmlns:inkscape="http://www.inkscape.org/namespaces/inkscape"
   xmlns:sodipodi="http://sodipodi.sourceforge.net/DTD/sodipodi-0.dtd"
   xmlns="http://www.w3.org/2000/svg"
   xmlns:svg="http://www.w3.org/2000/svg">
  <defs
     id="defs6311" />
  <sodipodi:namedview
     id="namedview6310"
     pagecolor="#ffffff"
     bordercolor="#999999"
     borderopacity="1"
     inkscape:showpageshadow="0"
     inkscape:pageopacity="0"
     inkscape:pagecheckerboard="0"
     inkscape:deskcolor="#d1d1d1"
     showgrid="false"
     inkscape:zoom="15.733333"
     inkscape:cx="5.4661017"
     inkscape:cy="7.5"
     inkscape:window-width="1309"
     inkscape:window-height="456"
     inkscape:window-x="0"
     inkscape:window-y="0"
     inkscape:window-maximized="0"
     inkscape:current-layer="svg6308" />
  <path
     d="M 13.335161,6.0880917 C 13.158032,5.5212382 12.395407,5.2591131 12.0645,4.7869322 11.730745,4.3100178 11.72391,3.4768965 11.264855,3.1301573 10.810356,2.7863765 10.047163,3.0354844 9.501535,2.851464 8.9747037,2.6733607 8.5008395,2.0000001 7.9170535,2.0000001 7.3332676,2.0000001 6.8594034,2.6733607 6.332572,2.8508723 5.7863755,3.0348927 5.0231813,2.7863765 4.5686821,3.1301573 4.1096267,3.4768965 4.1033616,4.3106094 3.7696067,4.7869322 3.4386994,5.2591131 2.6760749,5.5212382 2.4989456,6.0880917 2.3280813,6.63542 2.7911235,7.3105561 2.7911235,7.9170535 c 0,0.6064974 -0.4630422,1.2816335 -0.2921779,1.8289618 0.1771293,0.5668537 0.9397538,0.8289787 1.2706611,1.3011597 0.3337549,0.476914 0.3405895,1.310035 0.7996451,1.656774 0.454499,0.343781 1.2176925,0.09467 1.7633202,0.278694 0.5268314,0.178103 1.0006956,0.851464 1.5844815,0.851464 0.583786,0 1.0576502,-0.673361 1.5844815,-0.850873 0.545628,-0.18402 1.309391,0.0645 1.76332,-0.278693 0.459055,-0.346739 0.46532,-1.180452 0.799075,-1.656775 0.330907,-0.472181 1.093532,-0.734306 1.270662,-1.3011597 0.171434,-0.5479193 -0.291609,-1.2230554 -0.291609,-1.8295528 0,-0.6064974 0.463043,-1.2816335 0.292178,-1.8289618 z M 7.9170535,10.875579 c -1.5725213,0 -2.8477388,-1.3248271 -2.8477388,-2.9585255 0,-1.6336983 1.2752175,-2.9585267 2.8477388,-2.9585267 1.5725214,0 2.8477375,1.3248284 2.8477375,2.9585267 0,1.6336984 -1.2752161,2.9585255 -2.8477375,2.9585255 z"
     id="path1"
     style="fill:#00FF00;opacity:1;stroke-width:0.580521" />
</svg>
