<?xml version="1.0" encoding="UTF-8" standalone="no"?>
<svg
   viewBox="0 0 15 15"
   width="60"
   height="60"
   version="1.1"
   id="svg1"
   sodipodi:docname="candycane3.svg"
   xmlns:inkscape="http://www.inkscape.org/namespaces/inkscape"
   xmlns:sodipodi="http://sodipodi.sourceforge.net/DTD/sodipodi-0.dtd"
   xmlns="http://www.w3.org/2000/svg"
   xmlns:svg="http://www.w3.org/2000/svg">
  <sodipodi:namedview
     id="namedview1"
     pagecolor="#ffffff"
     bordercolor="#000000"
     borderopacity="0.25"
     inkscape:showpageshadow="0"
     inkscape:pageopacity="0.0"
     inkscape:pagecheckerboard="0"
     inkscape:deskcolor="#d1d1d1" />
  <defs
     id="defs1" />
  <path
     d="m 8.4320392,0.63327461 c -0.4410169,0 -0.860548,0.073341 -1.2555383,0.20760431 a 0.28197362,0.28197362 0 0 0 -0.0044,0 0.28197362,0.28197362 0 0 0 -0.1756639,0.0655301 C 6.5059461,1.1014053 6.0572585,1.3956576 5.6632468,1.7830834 5.660963,1.7850852 5.5213904,1.9058319 5.4495851,2.1112853 5.3771915,2.3184224 5.3986915,2.6422127 5.6313077,2.9119663 5.819078,3.129712 6.0959459,3.4503674 6.3152456,3.6669413 6.4977584,3.8471851 6.7383256,3.8797717 6.9336534,3.8624307 7.1289812,3.8450882 7.2939768,3.7915356 7.435318,3.6796068 8.075342,3.1737532 8.8884338,3.14878 9.4050813,3.6586809 c 0.2611415,0.2578506 0.4019925,0.5936005 0.4019925,0.9565218 0,0.1644058 -0.03276,0.3221652 -0.088658,0.4708269 a 0.28197362,0.28197362 0 0 0 -0.03194,0.079297 0.28197362,0.28197362 0 0 0 0,5.639e-4 C 9.6191323,5.314501 9.5265087,5.4523911 9.4050813,5.5722885 L 8.2024077,6.7606444 a 0.28197362,0.28197362 0 0 0 -0.0011,5.639e-4 0.28197362,0.28197362 0 0 0 -0.050662,0.050661 l -1.7951995,1.7731726 -5.638e-4,5.64e-4 a 0.28197362,0.28197362 0 0 0 -0.04901,0.04846 L 4.5167306,10.401181 a 0.28197362,0.28197362 0 0 0 -0.069385,0.06829 l -1.6228381,1.603565 -5.497e-4,5.64e-4 -5.498e-4,5.64e-4 a 0.28197362,0.28197362 0 0 0 -5.498e-4,5.64e-4 c -0.071266,0.07051 -0.1242996,0.15252 -0.1629997,0.239543 a 0.28197362,0.28197362 0 0 0 -0.043503,0.128858 c -0.066675,0.264706 2.194e-4,0.557605 0.2070536,0.761583 0.2038297,0.201014 0.5340606,0.528055 0.7379039,0.729643 0.3124609,0.308577 0.8227982,0.308257 1.1349405,0 l 0.8975999,-0.886586 5.639e-4,-5.64e-4 a 0.28197362,0.28197362 0 0 0 0.047909,-0.04736 L 7.460653,11.202987 9.2839369,9.4017309 a 0.28197362,0.28197362 0 0 0 0.054517,-0.053419 L 11.129247,7.579 a 0.28197362,0.28197362 0 0 0 0.05673,-0.056169 l 0.09141,-0.090311 c 0.516302,-0.5095194 0.871668,-1.137579 1.049586,-1.8199797 a 0.28199333,0.28199333 0 0 0 0.0012,-0.00331 0.28199333,0.28199333 0 0 0 0.0077,-0.031388 c 0.07828,-0.311963 0.123349,-0.6337916 0.123349,-0.9626445 0,-0.5359385 -0.10785,-1.0568395 -0.311682,-1.5380343 A 0.28197362,0.28197362 0 0 0 12.10679,2.9918085 C 11.908094,2.5527931 11.631392,2.1474643 11.277925,1.7985021 10.991649,1.5156493 10.669471,1.2807528 10.321404,1.0974933 a 0.28197362,0.28197362 0 0 0 -0.09031,-0.042402 c -3.09e-4,-1.474e-4 -8.17e-4,1.472e-4 -0.001,0 C 9.6776774,0.7817917 9.0659813,0.63327461 8.4320392,0.63327461 Z m 0,0.56389089 c 0.4591168,0 0.9027477,0.087284 1.313359,0.2533102 L 8.8962578,2.773747 C 8.6619769,2.7246987 8.4182898,2.7201015 8.176526,2.7572267 L 7.5625236,1.3100536 C 7.8380666,1.2376252 8.1266065,1.1971655 8.4320392,1.1971655 Z M 7.0311227,1.5016886 7.6308074,2.9147197 C 7.4395007,2.996625 7.2552296,3.1033766 7.0856394,3.237415 a 0.28197362,0.28197362 0 0 0 -5.639e-4,0 C 7.0800851,3.2413697 6.9740229,3.292708 6.8835286,3.3007428 6.7930342,3.3087754 6.733334,3.2868457 6.7117181,3.2654995 6.5227611,3.078891 6.2447205,2.7600153 6.0580673,2.543565 5.9357143,2.4016783 5.9614965,2.3562919 5.9820743,2.2974134 c 0.020577,-0.058878 0.059473,-0.09747 0.059473,-0.09747 a 0.28197362,0.28197362 0 0 0 0.00992,-0.00936 C 6.350875,1.8947692 6.6779229,1.6665996 7.0311227,1.5016886 Z m 3.2186933,0.2070537 c 0.22564,0.1382972 0.438673,0.3000076 0.631624,0.490651 a 0.28197362,0.28197362 0 0 0 5.64e-4,0 c 0.24849,0.2453287 0.453854,0.5205168 0.613451,0.8172012 L 10.102249,3.6449143 C 10.019199,3.5051404 9.9199402,3.3741078 9.8015804,3.2572394 9.6884441,3.1455802 9.5645883,3.0545162 9.4342801,2.9791487 Z M 11.717364,3.53533 c 0.115376,0.3435646 0.177868,0.7062488 0.177868,1.079873 0,0.2021165 -0.02021,0.4006579 -0.05452,0.5952793 l -1.508297,-0.213111 c 0.02552,-0.1246597 0.03854,-0.2527012 0.03854,-0.3821683 0,-0.1525779 -0.02039,-0.3022458 -0.05562,-0.4476986 z M 10.130871,5.5386845 11.693685,5.759505 C 11.524239,6.2312716 11.252461,6.664865 10.88144,7.0310126 L 10.859964,7.0519386 8.978309,6.7865135 9.8015677,5.9731669 C 9.9331589,5.8431717 10.043099,5.6965812 10.130871,5.5386848 Z M 8.4738903,7.2848737 10.355546,7.5502988 9.0135516,8.8763239 7.1318963,8.6103478 Z M 6.6280287,9.1087079 8.5091335,9.3741331 7.1682407,10.699607 5.2860348,10.433631 Z M 4.7816166,10.931992 6.6632719,11.197968 5.3218286,12.523442 3.4396227,12.258016 Z m -1.5677706,1.863483 1.6035644,0.226327 -0.5176339,0.511026 c -0.095551,0.09436 -0.2461728,0.09461 -0.3419691,0 v 5.64e-4 C 3.753958,13.331785 3.42378,13.004801 3.2193528,12.803198 c -0.0024,-0.0024 -0.00323,-0.0053 -0.0055,-0.0077 z"
     id="path1"
     style="opacity:1;fill:#FF0000" />
</svg>
